<svg width="19" height="20" fill="none" xmlns="http://www.w3.org/2000/svg"><path d="M18.804 9.539L9.638.201A.616.616 0 0 0 9.185 0a.617.617 0 0 0-.452.2L7.75 1.204a.639.639 0 0 0 0 .921L15.48 10l-7.73 7.876a.64.64 0 0 0 0 .922l.983 1.002c.131.133.282.2.452.2a.619.619 0 0 0 .453-.2l9.166-9.339a.64.64 0 0 0 0-.922z" fill="#1991EB"/><path d="M11.447 10a.639.639 0 0 0-.196-.461L2.085.201A.617.617 0 0 0 1.633 0a.617.617 0 0 0-.453.2L.197 1.204a.638.638 0 0 0 0 .921L7.927 10l-7.73 7.876a.639.639 0 0 0 0 .922L1.18 19.8c.131.133.282.2.452.2a.62.62 0 0 0 .453-.2l9.166-9.339a.638.638 0 0 0 .196-.46z" fill="#1991EB"/></svg>