<svg width="80" height="63" fill="none" xmlns="http://www.w3.org/2000/svg"><path d="M38.744 13.714L69 32 50.846 0 10 18.286l28.744 9.143L69 32H10l28.744-18.286z" fill="#1768AC"/><path d="M9.552 55.216c2.088 0 3.84-.552 5.352-1.608.552-.384.768-.816.768-1.488 0-.984-.624-1.776-1.44-1.776-.504 0-.816.192-1.32.456-1.176.552-2.064.936-3.12.936-2.832 0-4.224-1.68-4.224-5.208 0-3.504 1.392-5.184 4.224-5.184 1.056 0 1.992.264 3.12.936.456.288.816.456 1.32.456.816 0 1.44-.792 1.44-1.776 0-.696-.216-1.104-.768-1.488-1.512-1.056-3.264-1.608-5.352-1.608-5.136 0-8.448 3.36-8.448 8.664 0 5.328 3.312 8.688 8.448 8.688zm15.45-12.264l-.336.024c-1.176.072-2.544.768-3.096 2.256v-.456c0-1.2-.84-1.824-1.968-1.824-1.056 0-2.088.624-2.088 1.92v8.304c0 1.392 1.008 1.968 2.136 1.968 1.104 0 2.136-.576 2.136-1.968v-4.104c0-1.32.552-2.232 2.232-2.424l.72-.072c1.56-.168 2.04-.696 2.04-1.944 0-1.152-.696-1.776-1.776-1.68zm11.189 1.2l-2.52 5.52-2.544-5.52c-.384-.84-1.104-1.2-1.824-1.2-1.08 0-2.184.792-2.184 1.848 0 .24.072.504.192.768l4.08 8.16-1.56 3.144a1.899 1.899 0 0 0-.216.84c0 1.032 1.008 1.776 2.016 1.776.672 0 1.368-.336 1.776-1.176l6.36-12.744c.144-.288.192-.552.192-.792 0-1.032-1.008-1.8-2.04-1.8-.672 0-1.368.336-1.728 1.176zm12.912-1.248c-1.56 0-2.952.696-3.624 1.8-.096-1.056-.888-1.752-2.112-1.752-1.272 0-2.088.792-2.088 1.968v12.6c0 1.128.864 1.92 2.184 1.92 1.248 0 2.088-.72 2.088-1.848v-4.08c.696 1.032 2.04 1.68 3.552 1.68 3.072 0 5.208-2.376 5.208-6.072 0-3.72-2.16-6.216-5.208-6.216zM47.807 52c-1.488 0-2.328-1.032-2.328-2.928 0-1.944.84-2.976 2.304-2.976s2.304 1.08 2.304 3.024c0 1.872-.816 2.88-2.28 2.88zm15.316.096l-.696-.048c-.6-.024-.984-.504-.984-1.104v-4.608h1.32c1.272 0 1.92-.528 1.92-1.584 0-1.032-.648-1.56-1.92-1.56h-1.32v-1.56c0-1.224-.816-1.992-2.136-1.992-1.296 0-2.136.768-2.136 1.992v1.56h-.696c-1.272 0-1.92.528-1.92 1.56 0 1.056.648 1.584 1.92 1.584h.696v4.248c0 2.712 1.488 4.272 4.392 4.488l.672.048c1.584.096 2.496-.456 2.496-1.584 0-.912-.528-1.368-1.608-1.44zm8.694 3.096c3.96 0 6.504-2.376 6.504-6.168 0-3.792-2.544-6.12-6.504-6.12-3.936 0-6.504 2.328-6.504 6.12 0 3.792 2.568 6.168 6.504 6.168zm0-3.192c-1.464 0-2.28-.912-2.28-2.976s.816-2.976 2.28-2.976c1.488 0 2.28.912 2.28 2.976S73.281 52 71.817 52z" fill="#fff"/></svg>