<svg width="20" height="17" fill="none" xmlns="http://www.w3.org/2000/svg"><path d="M7.461 17c-.865 0-1.755-.073-2.65-.218-1.578-.258-3.174-1.114-3.626-1.371L0 14.738l1.283-.438c1.402-.479 2.255-.776 3.312-1.241-1.058-.532-1.873-1.489-2.265-2.726l-.299-.94.245.038a4.594 4.594 0 0 1-.557-.714c-.505-.796-.773-1.77-.716-2.605l.056-.821.474.19c-.2-.391-.345-.81-.43-1.248a4.912 4.912 0 0 1 .488-3.2l.412-.785.552.688C4.3 3.112 6.51 4.403 9.132 4.78c-.107-.767-.027-1.507.239-2.17a4.013 4.013 0 0 1 1.59-1.894 4.64 4.64 0 0 1 2.773-.708 4.345 4.345 0 0 1 2.723 1.167c.364-.099.633-.204.996-.346.219-.085.467-.182.777-.293l1.142-.41-.745 2.21.153-.01L20 2.27l-.721 1.024c-.041.058-.052.075-.067.098-.058.091-.13.204-1.12 1.577a1.99 1.99 0 0 0-.348 1.26c.087 1.784-.123 3.398-.627 4.797-.477 1.324-1.215 2.46-2.194 3.376-1.212 1.133-2.757 1.909-4.593 2.306-.9.194-1.868.292-2.869.292z" fill="#F7931A"/></svg>